PathFileType	4	(x/y/z)	S06_PSF_T05
DataRate	CameraRate	NumFrames	NumMarkers	Units	OrigDataRate	OrigDataStartFrame	OrigNumFrames
240	240	9	51	mm	240	348	397
Frame#	Time	Sternum			R.Acromium			L.Acromium			Top.Head			R.ASIS			L.ASIS			R.PSIS			L.PSIS			R.Great.Tro			L.Great.Tro			R.Iliac.Crest			L.Iliac.Crest			V.Sacral			R.Thigh.Upper.Post			R.Thigh.Lower.Ant			R.Thigh.Lower.Post			R.Thigh.Upper.Ant			R.Knee.Lat			R.Knee.Med			R.Shank.Upper.Post			R.Shank.Lower.Ant			R.Shank.Lower.Post			R.Shank.Upper.Ant			R.Ankle.Lat			R.Ankle.Med			R.Heel.Upper			R.Heel.Med			R.Heel.Lat			R.Toe.Lat			R.Toe.Med			R.Toe.Tip			L.Thigh.Upper.Post			L.Thigh.Lower.Ant			L.Thigh.Lower.Post			L.Thigh.Upper.Ant			L.Knee.Lat			L.Knee.Med			L.Shank.Upper.Post			L.Shank.Lower.Ant			L.Shank.Lower.Post			L.Shank.Upper.Ant			L.Ankle.Lat			L.Ankle.Med			L.Heel.Upper			L.Heel.Med			L.Heel.Lat			L.Toe.Lat			L.Toe.Med			L.Toe.Tip			Cervical.Spine			Back			
		X1	Y1	Z1	X2	Y2	Z2	X3	Y3	Z3	X4	Y4	Z4	X5	Y5	Z5	X6	Y6	Z6	X7	Y7	Z7	X8	Y8	Z8	X9	Y9	Z9	X10	Y10	Z10	X11	Y11	Z11	X12	Y12	Z12	X13	Y13	Z13	X14	Y14	Z14	X15	Y15	Z15	X16	Y16	Z16	X17	Y17	Z17	X18	Y18	Z18	X19	Y19	Z19	X20	Y20	Z20	X21	Y21	Z21	X22	Y22	Z22	X23	Y23	Z23	X24	Y24	Z24	X25	Y25	Z25	X26	Y26	Z26	X27	Y27	Z27	X28	Y28	Z28	X29	Y29	Z29	X30	Y30	Z30	X31	Y31	Z31	X32	Y32	Z32	X33	Y33	Z33	X34	Y34	Z34	X35	Y35	Z35	X36	Y36	Z36	X37	Y37	Z37	X38	Y38	Z38	X39	Y39	Z39	X40	Y40	Z40	X41	Y41	Z41	X42	Y42	Z42	X43	Y43	Z43	X44	Y44	Z44	X45	Y45	Z45	X46	Y46	Z46	X47	Y47	Z47	X48	Y48	Z48	X49	Y49	Z49	X50	Y50	Z50	X51	Y51	Z51	

348	1.4458	406.9	1294.5	335.89	273.81	1500.6	497.33	285.88	1502.7	145.31	324.23	1818.2	321.53	348.21	1062.3	454.98	368.01	1058.2	203.87	155.93	1078.9	351.54	160.2	1083.7	270.96	298.57	988.62	503.41	267.85	985.6	145.49	262.45	1135.9	480.92	301.59	1132.1	164.77	144.4	1047.3	313.5	401.81	759.75	498.81	483.38	705.42	466.04	423.88	673.97	482.13	463.04	793.68	476.82	478.36	579.53	474.19	483.65	580.22	345.67	403.37	364.81	486.33	450.95	291.53	467.04	386.5	289.69	476.18	467.25	365.85	477.29	392.68	155.79	457.9	411	157	372.52	326.65	117.49	407.2	332.98	83.473	379.83	327.82	88.674	444.8	498.46	61.689	497.71	531.64	57.254	382.32	595.47	69.927	429.68	301.14	727.09	178.82	341.57	642.82	238.07	272.92	642.43	198.46	364.26	732.53	213.52	241.28	547.63	217.44	269.55	555.48	336.34	161.35	326.08	237.78	216.33	256.22	241.81	146.59	256.62	258.45	226.97	325.09	227.2	174.89	112.79	263.81	187.11	134.06	348.78	91.448	77.142	307.08	94.14	48.75	338.95	96.483	52.058	277.18	276.44	43.256	242.23	294.02	44.168	362.06	368.01	52.081	308.7	225.77	1555.6	319.98	165.76	1283.9	312.42
349	1.45	412.1	1294.1	335.91	278.72	1500.2	497.27	291.34	1502.5	145.28	329.47	1817.8	321.69	353.55	1062	454.93	373.15	1057.7	203.87	161.23	1078.6	351.49	165.47	1083.4	270.92	303.76	988.27	503.31	272.79	985.23	145.51	267.7	1135.6	480.84	306.78	1131.6	164.68	149.7	1047	313.46	406.23	759.06	498.29	487.55	704.46	465.4	427.97	673.23	481.46	467.54	792.78	476.25	482.84	578.83	473.51	487.59	579.45	345	413.25	362.13	485.37	462.82	290.27	466.27	398.46	286.59	475.11	477.1	364.93	476.56	408.41	152.77	456.78	426.99	154.62	371.5	343.7	112.72	405.82	351.09	79.004	378.43	345.55	83.899	443.3	516.63	61.455	496.87	550.27	58.254	381.67	613.55	72.535	429.35	304.31	726.82	178.95	344.35	642.26	238.06	275.62	642.31	198.56	367.52	731.88	213.58	243.26	547.64	217.5	271.69	555.31	336.39	162.32	326.41	238.03	217.03	256.33	241.91	147.35	257.01	258.71	227.92	325.15	227.27	175.11	113.01	264	187.55	134.24	348.95	91.565	77.32	307.33	94.252	48.893	339.18	96.549	52.262	277.4	276.47	43.291	242.31	294.14	44.046	362.12	368.14	51.822	308.74	230.97	1555.3	319.87	171.01	1283.5	312.12
350	1.4542	417.33	1293.8	335.93	283.64	1499.7	497.21	296.79	1502.2	145.25	334.7	1817.5	321.84	358.91	1061.7	454.87	378.32	1057.2	203.87	166.56	1078.2	351.46	170.77	1083.1	270.89	308.97	987.87	503.22	277.74	984.84	145.53	272.98	1135.3	480.78	311.99	1131.1	164.6	155.03	1046.6	313.43	410.53	758.26	497.82	491.6	703.38	464.82	431.91	672.37	480.85	471.92	791.76	475.73	487.15	578.02	472.87	491.4	578.56	344.34	422.99	359.5	484.37	474.53	289.11	465.49	410.29	283.59	473.96	486.76	364.05	475.83	424.07	149.95	455.59	442.9	152.48	370.41	360.72	108.2	404.35	369.18	74.818	376.92	363.26	79.354	441.71	534.66	61.46	495.94	568.73	59.596	380.93	631.4	75.443	428.95	307.5	726.53	179.06	347.14	641.68	238.05	278.36	642.17	198.66	370.8	731.21	213.64	245.28	547.65	217.57	273.88	555.12	336.44	163.32	326.74	238.28	217.75	256.44	242	148.12	257.41	258.98	228.89	325.21	227.34	175.34	113.24	264.2	188	134.42	349.12	91.689	77.507	307.59	94.37	49.045	339.41	96.617	52.474	277.63	276.5	43.328	242.38	294.27	43.927	362.19	368.28	51.556	308.78	236.16	1554.9	319.77	176.28	1283.1	311.84
351	1.4583	422.57	1293.4	335.95	288.57	1499.3	497.15	302.24	1501.9	145.23	339.93	1817.1	322	364.3	1061.3	454.82	383.53	1056.6	203.87	171.92	1077.9	351.45	176.09	1082.7	270.87	314.19	987.42	503.13	282.71	984.43	145.56	278.29	1134.9	480.73	317.23	1130.6	164.52	160.38	1046.3	313.41	414.73	757.37	497.41	495.53	702.18	464.3	435.71	671.42	480.28	476.19	790.63	475.28	491.3	577.11	472.27	495.09	577.57	343.71	432.58	356.91	483.31	486.07	288.04	464.69	421.99	280.69	472.75	496.24	363.21	475.09	439.62	147.32	454.32	458.7	150.57	369.27	377.69	103.91	402.8	387.21	70.923	375.32	380.93	75.048	440.02	552.54	61.708	494.9	586.97	61.283	380.1	649.01	78.65	428.47	310.72	726.22	179.17	349.97	641.09	238.03	281.13	642.01	198.76	374.11	730.54	213.69	247.35	547.64	217.64	276.13	554.92	336.49	164.35	327.07	238.52	218.48	256.54	242.1	148.92	257.81	259.24	229.88	325.27	227.41	175.57	113.48	264.4	188.45	134.6	349.29	91.822	77.704	307.86	94.492	49.211	339.65	96.687	52.698	277.87	276.54	43.365	242.46	294.39	43.81	362.25	368.42	51.284	308.81	241.36	1554.5	319.67	181.56	1282.7	311.58
352	1.4625	427.83	1293	335.97	293.52	1498.8	497.1	307.68	1501.5	145.22	345.14	1816.6	322.17	369.71	1060.9	454.78	388.79	1056	203.86	177.3	1077.5	351.45	181.43	1082.3	270.87	319.42	986.91	503.05	287.69	984	145.6	283.64	1134.5	480.69	322.5	1130.1	164.45	165.77	1045.8	313.41	418.82	756.39	497.06	499.35	700.87	463.84	439.39	670.37	479.78	480.35	789.38	474.88	495.29	576.09	471.69	498.67	576.47	343.09	442.01	354.38	482.21	497.42	287.06	463.88	433.53	277.9	471.48	505.53	362.41	474.36	455.04	144.9	452.99	474.37	148.91	368.07	394.57	99.882	401.18	405.16	67.331	373.61	398.52	70.99	438.23	570.22	62.195	493.77	604.97	63.315	379.17	666.34	82.15	427.91	313.96	725.89	179.26	352.84	640.49	238	283.93	641.84	198.84	377.44	729.84	213.72	249.47	547.62	217.7	278.42	554.71	336.53	165.4	327.41	238.77	219.23	256.65	242.19	149.74	258.23	259.5	230.91	325.33	227.48	175.8	113.72	264.61	188.91	134.79	349.46	91.963	77.916	308.14	94.618	49.394	339.9	96.76	52.935	278.11	276.57	43.404	242.55	294.52	43.697	362.32	368.56	51.005	308.85	246.55	1554	319.58	186.86	1282.2	311.33
353	1.4667	433.11	1292.6	335.99	298.47	1498.3	497.06	313.11	1501.1	145.21	350.36	1816.2	322.33	375.15	1060.4	454.73	394.08	1055.4	203.85	182.71	1077	351.46	186.79	1081.9	270.89	324.67	986.35	502.97	292.68	983.55	145.64	289.01	1134.1	480.66	327.82	1129.5	164.38	171.17	1045.4	313.43	422.83	755.33	496.77	503.07	699.46	463.44	442.95	669.24	479.33	484.41	788.03	474.56	499.13	574.99	471.14	502.15	575.29	342.48	451.29	351.91	481.05	508.58	286.18	463.05	444.91	275.23	470.13	514.62	361.66	473.62	470.31	142.69	451.58	489.86	147.51	366.83	411.34	96.114	399.49	422.97	64.047	371.81	416.02	67.185	436.36	587.7	62.915	492.54	622.7	65.685	378.15	683.36	85.93	427.27	317.24	725.54	179.34	355.74	639.89	237.96	286.78	641.65	198.92	380.81	729.14	213.74	251.63	547.59	217.76	280.77	554.48	336.57	166.5	327.76	239.02	220.01	256.76	242.27	150.58	258.65	259.75	231.97	325.39	227.54	176.05	113.97	264.81	189.38	134.99	349.63	92.115	78.144	308.41	94.75	49.596	340.14	96.837	53.187	278.36	276.61	43.442	242.63	294.65	43.589	362.39	368.71	50.721	308.88	251.74	1553.6	319.49	192.17	1281.7	311.1
354	1.4708	438.41	1292.1	336	303.44	1497.7	497.01	318.53	1500.7	145.2	355.56	1815.7	322.49	380.61	1060	454.69	399.41	1054.8	203.83	188.14	1076.6	351.48	192.17	1081.4	270.92	329.95	985.75	502.9	297.69	983.08	145.68	294.4	1133.6	480.64	333.17	1128.9	164.32	176.61	1044.9	313.46	426.75	754.18	496.54	506.7	697.96	463.1	446.42	668.02	478.93	488.39	786.59	474.29	502.83	573.8	470.61	505.55	574.02	341.88	460.38	349.5	479.83	519.52	285.39	462.21	456.11	272.68	468.72	523.49	360.94	472.87	485.4	140.7	450.11	505.17	146.35	365.53	427.95	92.61	397.73	440.62	61.075	369.93	433.37	63.638	434.41	604.94	63.86	491.21	640.11	68.381	377.03	700.03	89.974	426.55	320.55	725.17	179.41	358.68	639.28	237.91	289.67	641.44	199	384.22	728.42	213.75	253.85	547.55	217.83	283.18	554.25	336.61	167.62	328.1	239.26	220.82	256.88	242.36	151.45	259.08	260	233.06	325.45	227.6	176.3	114.22	265	189.86	135.2	349.79	92.276	78.393	308.68	94.885	49.821	340.39	96.918	53.457	278.6	276.64	43.479	242.71	294.77	43.486	362.46	368.86	50.431	308.92	256.93	1553.1	319.41	197.49	1281.1	310.88
355	1.475	443.72	1291.6	336.02	308.43	1497.2	496.97	323.94	1500.3	145.2	360.75	1815.2	322.66	386.08	1059.4	454.65	404.77	1054.2	203.81	193.59	1076.1	351.53	197.58	1080.9	270.96	335.25	985.1	502.84	302.72	982.59	145.73	299.82	1133.2	480.63	338.57	1128.3	164.27	182.07	1044.4	313.5	430.61	752.96	496.37	510.25	696.37	462.81	449.8	666.74	478.57	492.3	785.06	474.1	506.4	572.53	470.09	508.87	572.7	341.28	469.3	347.17	478.56	530.22	284.7	461.35	467.11	270.26	467.24	532.15	360.27	472.12	500.28	138.91	448.58	520.24	145.44	364.18	444.37	89.373	395.9	458.06	58.417	367.95	450.56	60.352	432.37	621.9	65.016	489.78	657.17	71.385	375.82	716.34	94.259	425.74	323.9	724.79	179.47	361.66	638.66	237.84	292.61	641.22	199.06	387.66	727.7	213.73	256.14	547.5	217.88	285.65	554	336.64	168.79	328.46	239.5	221.65	256.99	242.43	152.35	259.53	260.24	234.19	325.51	227.65	176.56	114.48	265.19	190.34	135.41	349.95	92.449	78.665	308.95	95.025	50.074	340.63	97.005	53.749	278.83	276.68	43.515	242.79	294.9	43.39	362.52	369.01	50.136	308.95	262.13	1552.5	319.33	202.83	1280.6	310.68
356	1.4792	449.05	1291.2	336.03	313.42	1496.6	496.94	329.34	1499.9	145.2	365.94	1814.7	322.83	391.58	1058.9	454.62	410.17	1053.5	203.79	199.06	1075.6	351.58	203	1080.4	271.02	340.57	984.41	502.8	307.76	982.09	145.78	305.26	1132.6	480.63	344.01	1127.7	164.22	187.55	1043.9	313.57	434.4	751.68	496.25	513.74	694.73	462.57	453.1	665.4	478.26	496.14	783.47	473.97	509.86	571.2	469.58	512.15	571.32	340.68	478.03	344.91	477.23	540.69	284.1	460.47	477.9	267.97	465.7	540.59	359.64	471.36	514.93	137.33	447	535.06	144.76	362.79	460.58	86.403	394.02	475.26	56.069	365.89	467.54	57.325	430.25	638.55	66.366	488.26	673.85	74.674	374.52	732.26	98.756	424.85	327.3	724.4	179.52	364.69	638.03	237.77	295.6	640.98	199.12	391.14	726.96	213.7	258.48	547.44	217.94	288.17	553.74	336.67	170.01	328.82	239.72	222.52	257.11	242.5	153.28	259.98	260.47	235.36	325.58	227.7	176.83	114.75	265.37	190.84	135.63	350.1	92.634	78.964	309.2	95.168	50.357	340.86	97.097	54.064	279.06	276.72	43.548	242.88	295.03	43.301	362.58	369.16	49.837	308.99	267.32	1552	319.27	208.18	1279.9	310.5
